<svg xmlns="http://www.w3.org/2000/svg" viewBox="0 0 581.68 140.61"><defs><style>.cls-1{fill:#e30613;}.cls-2{fill:#3c3c3b;}</style></defs><title>Comremit_logo color</title><g id="Capa_2" data-name="Capa 2"><g id="Capa_1-2" data-name="Capa 1"><ellipse class="cls-1" cx="113.7" cy="40.4" rx="15.02" ry="15.46"/><path class="cls-2" d="M148.57,81.51a4.79,4.79,0,0,1-1.49-.24l-15-5a2,2,0,0,0-1.56.14,40.44,40.44,0,1,1,17.66-17.58,2,2,0,0,0-.15,1.56l5,15a4.69,4.69,0,0,1-4.42,6.16Zm-17.14-8a4.73,4.73,0,0,1,1.44.24l15,5a2,2,0,0,0,2.12-.5,2,2,0,0,0,.49-2.11l-5-15a4.61,4.61,0,0,1,.29-3.58,37.77,37.77,0,1,0-70.67-9.91h0A37.74,37.74,0,0,0,129.3,74.06,4.78,4.78,0,0,1,131.43,73.54Z"/><path class="cls-1" d="M0,42.12v-.21C0,20.67,16.35,4,38.41,4c14.89,0,24.47,6.25,30.92,15.2L54.13,31c-4.16-5.2-9-8.54-15.92-8.54-10.2,0-17.39,8.65-17.39,19.26v.21c0,10.93,7.19,19.47,17.39,19.47,7.6,0,12.07-3.54,16.45-8.85L69.85,63.36C63,72.83,53.72,79.81,37.58,79.81,16.76,79.81,0,63.88,0,42.12Z"/><path class="cls-1" d="M162.87,5.48h21.35L201.6,33.69,219,5.48h21.34V78.35h-20.1V36.5L201.6,65h-.42L182.66,36.71V78.35H162.87Z"/><path class="cls-1" d="M253.21,5.48h34.46c11.14,0,18.84,2.91,23.73,7.91,4.27,4.16,6.46,9.78,6.46,17v.2c0,11.14-5.93,18.54-15,22.39l17.38,25.4H296.93L282.25,56.28h-8.84V78.35h-20.2Zm33.52,35c6.87,0,10.83-3.33,10.83-8.64v-.2c0-5.73-4.17-8.64-10.93-8.64H273.41V40.45Z"/><path class="cls-1" d="M328,5.48h58.62V22.65H348v11h35V49.62H348V61.17h39.15V78.35H328Z"/><path class="cls-1" d="M397.45,5.48h21.34l17.39,28.21L453.56,5.48H474.9V78.35H454.81V36.5L436.18,65h-.42L417.23,36.71V78.35H397.45Z"/><path class="cls-1" d="M488.2,5.2h20.3V78.35H488.2Z"/><path class="cls-1" d="M539.62,23.17H517.76V5.48h63.92V23.17H559.82V78.35h-20.2Z"/><path class="cls-2" d="M162.35,136.19l1.52-2.64a20.07,20.07,0,0,0,12.4,4.15c7.26,0,10.17-2.57,10.17-6.46,0-10-22.83-2.64-22.83-16.17,0-5.21,4.35-9.43,13.06-9.43,4.36,0,9.11,1.32,11.81,3.37L187,111.65a17.67,17.67,0,0,0-10.35-3.11c-6.74,0-9.7,2.77-9.7,6.47,0,10.36,22.82,3,22.82,16.16,0,5.61-4.81,9.44-13.59,9.44C170.47,140.61,165.05,138.69,162.35,136.19Z"/><path class="cls-2" d="M208.38,123.12c0-10.22,7.33-17.48,17.22-17.48s17.23,7.26,17.23,17.48-7.33,17.49-17.23,17.49S208.38,133.35,208.38,123.12Zm31.08,0c0-8.64-5.94-14.51-13.86-14.51s-13.85,5.87-13.85,14.51,5.93,14.52,13.85,14.52S239.46,131.77,239.46,123.12Z"/><path class="cls-2" d="M266.22,131.31V91.39h3.3v39.52c0,4.42,2,6.86,6.07,6.86a8.82,8.82,0,0,0,3.3-.66l.26,2.77a11.4,11.4,0,0,1-4,.73C269.32,140.61,266.22,137.05,266.22,131.31Z"/><path class="cls-2" d="M329.22,105.9v34.44h-3.17V133c-2.24,4.82-6.93,7.66-13,7.66-8.77,0-14.39-5-14.39-14.59V105.9H302v19.87c0,7.78,4.16,11.87,11.35,11.87,7.79,0,12.61-5.21,12.61-13.39V105.9Z"/><path class="cls-2" d="M372.4,138.17a10.43,10.43,0,0,1-7.06,2.44c-6.07,0-9.37-3.56-9.37-9.37V98.38h3.3v7.52h11v2.84h-11v22.17c0,4.42,2.18,6.86,6.4,6.86a8,8,0,0,0,5.35-1.91Z"/><path class="cls-2" d="M393.69,94.89a2.73,2.73,0,0,1,2.71-2.71,2.68,2.68,0,1,1-2.71,2.71Zm1.06,11h3.3v34.44h-3.3Z"/><path class="cls-2" d="M421.39,123.12c0-10.22,7.32-17.48,17.22-17.48s17.22,7.26,17.22,17.48-7.32,17.49-17.22,17.49S421.39,133.35,421.39,123.12Zm31.08,0c0-8.64-5.94-14.51-13.86-14.51s-13.85,5.87-13.85,14.51,5.93,14.52,13.85,14.52S452.47,131.77,452.47,123.12Z"/><path class="cls-2" d="M510,120.22v20.12h-3.3V120.48c0-7.78-4.16-11.87-11.15-11.87-8.12,0-13.07,5.21-13.07,13.39v18.34h-3.29V105.9h3.17v7.46c2.3-4.82,7.12-7.72,13.65-7.72C504.43,105.64,510,110.59,510,120.22Z"/><path class="cls-2" d="M531.71,136.19l1.52-2.64a20.08,20.08,0,0,0,12.41,4.15c7.25,0,10.16-2.57,10.16-6.46,0-10-22.83-2.64-22.83-16.17,0-5.21,4.36-9.43,13.07-9.43,4.35,0,9.1,1.32,11.81,3.37l-1.52,2.64A17.7,17.7,0,0,0,546,108.54c-6.73,0-9.7,2.77-9.7,6.47,0,10.36,22.83,3,22.83,16.16,0,5.61-4.82,9.44-13.59,9.44C539.83,140.61,534.42,138.69,531.71,136.19Z"/></g></g></svg>