<svg xmlns="http://www.w3.org/2000/svg" viewBox="0 0 382.3 89.48"><defs><style>.cls-1{fill:#0089b3;}.cls-2,.cls-5{fill:#f09e1c;}.cls-2{fill-rule:evenodd;}.cls-3{fill:#fff;}.cls-4{fill:#29235c;}</style></defs><title>SendMUNDO_LOGO</title><g id="Capa_2" data-name="Capa 2"><g id="Capa_1-2" data-name="Capa 1"><path class="cls-1" d="M13.62,51.78a1.74,1.74,0,0,1-1.72-1.53,44.84,44.84,0,0,1,78.55-34.6,1.74,1.74,0,0,1-2.65,2.27A41.36,41.36,0,0,0,15.35,49.83a1.74,1.74,0,0,1-1.52,1.94Z"/><path class="cls-1" d="M56.41,89.48A44.47,44.47,0,0,1,25.6,77.14a1.55,1.55,0,0,1,2.13-2.24,41.57,41.57,0,0,0,69-40.22,1.55,1.55,0,0,1,3-.76,44.7,44.7,0,0,1-43.3,55.56Z"/><polygon class="cls-2" points="74.83 56.78 58.8 45.39 104.17 20.54 74.83 56.78"/><polygon class="cls-2" points="55.09 44.03 50.66 53.13 48.42 40.8 101.16 21.68 55.09 44.03"/><polygon class="cls-2" points="34.23 27.37 47.58 37.89 104.17 20.54 34.23 27.37"/><line class="cls-3" x1="14.7" y1="56" x2="43.66" y2="42.44"/><path class="cls-4" d="M14.7,57a1,1,0,0,1-.87-.56,1,1,0,0,1,.46-1.28l29-13.57a1,1,0,1,1,.82,1.75l-29,13.57A1,1,0,0,1,14.7,57Z"/><line class="cls-3" x1="10.85" y1="67.37" x2="44.87" y2="51.43"/><path class="cls-4" d="M10.85,68.34a1,1,0,0,1-.41-1.85l34-15.93a1,1,0,0,1,1.28.46,1,1,0,0,1-.46,1.29l-34,15.93A.86.86,0,0,1,10.85,68.34Z"/><line class="cls-3" x1="0.97" y1="81.49" x2="57.4" y2="55.06"/><path class="cls-4" d="M1,82.46a1,1,0,0,1-.88-.56,1,1,0,0,1,.47-1.28L57,54.18a1,1,0,0,1,.82,1.75L1.38,82.37A1,1,0,0,1,1,82.46Z"/><path class="cls-1" d="M128.26,61.42c-5.63,0-10.53-1.53-13.59-5.75l5.09-4.59a10.13,10.13,0,0,0,8.14,4.09c2.38,0,5-.81,5-3.06,0-1.75-1.3-2.34-2.92-3-.81-.31-4.5-1.3-5.58-1.57-4.45-1.12-8.27-3.51-8.27-9,0-6,5-10.34,12.14-10.34,5.62,0,9.49,1.57,12,5l-5.21,4.36a8.42,8.42,0,0,0-6.7-3.06c-2.34,0-4.37,1-4.37,3.11s1.94,2.38,4.32,3c.77.22,3.91,1,4.72,1.26,4.73,1.3,8,3.82,8,9C141.16,58,134.87,61.42,128.26,61.42Z"/><path class="cls-1" d="M145.25,60.88V28.82h23.61v6.52H153.25v6.11h13.14v6.48H153.25v6.39H169v6.56Z"/><path class="cls-1" d="M194,60.88,181.45,42h-.09V60.88h-7.42V28.82h7.78L193.9,46.94H194V28.82h7.47V60.88Z"/><path class="cls-1" d="M220.34,60.88H206.89V28.82h13.36c7.15,0,13.13,3.82,13.13,11.28v9C233.38,57.1,227.08,60.88,220.34,60.88Zm-.72-25.5H214.9v19h4.95c2.92,0,5.44-1.84,5.44-5.13l0-8.81C225.33,37.27,222.81,35.38,219.62,35.38Z"/><path class="cls-5" d="M263.28,60.88v-29h-.22l-9.45,21.91h-2.34L242,31.87h-.22v29H239V28.82h4.67l8.77,21h.14l8.9-21h4.68V60.88Z"/><path class="cls-5" d="M283.83,61.42c-4.91,0-10.93-2.52-10.93-9.08V28.82h3v23c0,4.9,4.18,7.1,8.41,7.1,3.82,0,8.18-2.06,8.18-7.06v-23h2.74V52C295.2,58.72,289,61.42,283.83,61.42Z"/><path class="cls-5" d="M321.51,61l-16.87-27.3h-.13V60.88h-2.57V28.82h3l16.55,26.49h.14V28.82h2.52V61Z"/><path class="cls-5" d="M342.77,60.88H331.48V28.82h11.29c6.39,0,10.57,3.41,10.57,10.12V50.45C353.34,56.88,349.2,60.88,342.77,60.88Zm7.6-21.58c0-4.37-2.29-7.92-8.05-7.92h-8V58.32h8.32c5.8,0,7.69-4,7.69-7.74Z"/><path class="cls-5" d="M370.51,61.42c-6.56,0-11.42-3.55-11.42-10.61V39.74c0-7,4.59-11.51,11.65-11.51,6.88,0,11.56,3.69,11.56,10.66V50.27C382.3,57.33,377.26,61.42,370.51,61.42ZM379.24,39c0-5-2.93-8.14-8.68-8.14-5.53,0-8.41,3.6-8.41,8.82V50.58c0,5.18,3.06,8.28,8.59,8.28s8.5-3.24,8.5-8.32Z"/></g></g></svg>